HIERARCHY
ROOT Hips
{
  OFFSET 159.195 91.9452 138.192
  CHANNELS 6 Xposition Yposition Zposition Zrotation Xrotation Yrotation
  JOINT ToSpine
  {
    OFFSET -0.0105055 1.38907 -7.13956
    CHANNELS 3 Zrotation Xrotation Yrotation
    JOINT Spine
    {
      OFFSET 0.0105055 10 1
      CHANNELS 3 Zrotation Xrotation Yrotation
      JOINT Spine1
      {
        OFFSET 0 12 1.60637
        CHANNELS 3 Zrotation Xrotation Yrotation
        JOINT Neck
        {
          OFFSET 0 27 2.26658
          CHANNELS 3 Zrotation Xrotation Yrotation
          JOINT Head
          {
            OFFSET 0 9 2.12705
            CHANNELS 3 Zrotation Xrotation Yrotation
            End Site
            {
              OFFSET 0 11 2
            }
          }
        }
        JOINT LeftShoulder
        {
          OFFSET 8 19.6109 2.86452
          CHANNELS 3 Zrotation Xrotation Yrotation
          JOINT LeftArm
          {
            OFFSET 12 1 0.681055
            CHANNELS 3 Zrotation Xrotation Yrotation
            JOINT LeftForeArm
            {
              OFFSET 19 0 -1.52608
              CHANNELS 3 Zrotation Xrotation Yrotation
              JOINT LeftHand
              {
                OFFSET 23 0 0
                CHANNELS 3 Zrotation Xrotation Yrotation
                End Site
                {
                  OFFSET 10 0 0
                }
              }
            }
          }
        }
        JOINT RightShoulder
        {
          OFFSET -8 19.6109 2.86452
          CHANNELS 3 Zrotation Xrotation Yrotation
          JOINT RightArm
          {
            OFFSET -12 1 0.681055
            CHANNELS 3 Zrotation Xrotation Yrotation
            JOINT RightForeArm
            {
              OFFSET -19 0 -1.52608
              CHANNELS 3 Zrotation Xrotation Yrotation
              JOINT RightHand
              {
                OFFSET -23 0 0
                CHANNELS 3 Zrotation Xrotation Yrotation
                End Site
                {
                  OFFSET -10 0 0
                }
              }
            }
          }
        }
      }
    }
  }
  JOINT LeftUpLeg
  {
    OFFSET 9 -7.17245 0
    CHANNELS 3 Zrotation Xrotation Yrotation
    JOINT LeftLeg
    {
      OFFSET 0 -44.1113 0
      CHANNELS 3 Zrotation Xrotation Yrotation
      JOINT LeftFoot
      {
        OFFSET 0 -36.1829 0
        CHANNELS 3 Zrotation Xrotation Yrotation
        JOINT LeftToeBase
        {
          OFFSET 0 -4.84184 13
          CHANNELS 3 Zrotation Xrotation Yrotation
          End Site
          {
            OFFSET 0 1 6
          }
        }
      }
    }
  }
  JOINT RightUpLeg
  {
    OFFSET -9 -7.17245 0
    CHANNELS 3 Zrotation Xrotation Yrotation
    JOINT RightLeg
    {
      OFFSET 0 -44.0551 0
      CHANNELS 3 Zrotation Xrotation Yrotation
      JOINT RightFoot
      {
        OFFSET 0 -36.1469 0
        CHANNELS 3 Zrotation Xrotation Yrotation
        JOINT RightToeBase
        {
          OFFSET 0 -4.92256 13
          CHANNELS 3 Zrotation Xrotation Yrotation
          End Site
          {
            OFFSET 0 1 6
          }
        }
      }
    }
  }
}
MOTION
Frames:	17
Frame Time:	0.0333333
159.195 91.9452 138.192 1.66029 3.4368 -126.203 0 0 0 -15.2991 0.21547 -18.182 19.0095 7.7368 -21.5613 12.3799 -9.88088 18.7905 -9.4278 13.0485 23.1215 10.8998 -0.144009 -9.7281 -12.5251 -10.9652 -36.8638 -16.2165 6.63414 -111.664 16.0606 1.01175 7.16228 1.98582 0.991003 6.19263 55.041 3.57101 -59.1277 -24.8857 16.522 58.4895 -2.17508 -0.195876 10.2905 4.07992 43.0079 13.1568 5.81977e-008 42.0418 -1.14113 16.1212 -2.61322 0.370145 1.07187 -13.9545 -1.14446 0.759171 -30.6191 0.812634 0.66245 15.3878 4.8233 -22.4044 0.443219 0.087778 4.03414 -15.4411 -8.96339 
150.776 92.1344 129.309 0.814952 4.66774 -129.013 0 0 0 -12.5257 2.24617 -14.3159 18.1704 5.49801 -18.2631 7.82095 -7.30602 17.4045 -8.47139 10.0026 20.7793 -0.0460088 1.14906 -9.97063 -12.3659 -5.60254 -30.1027 -2.49425 1.25149 -116.629 9.74398 0.781481 9.14889 9.25694 1.72341 6.81504 50.3052 -3.58239 -54.694 -21.2977 13.1759 59.6849 -2.06466 -0.161464 8.94231 5.78329 35.1237 15.2739 -4.79342e-007 68.2825 -5.65082 22.2725 -2.92891 0.576675 1.22165 -15.9296 -1.45303 2.78206 -28.4756 -2.12562 0.810594 21.7116 11.7165 -21.8915 19.1364 3.7344 4.78988 -19.6342 -10.0588 
141.794 90.0234 120.363 1.11718 6.80182 -133.825 0 0 0 -6.54301 5.72587 -9.95431 15.4337 -0.0286771 -13.4681 0.779585 -4.15744 17.234 -5.1297 3.87859 18.1162 -18.2531 3.11637 -8.99026 -9.40112 0.0458859 -17.5075 11.7647 -6.99967 -120.333 4.34221 0.346982 9.13318 18.6159 3.3236 9.63792 44.1227 -9.16559 -45.6019 -18.919 9.47672 64.3415 -3.16077 -0.188262 6.81555 8.36495 27.1681 18.3546 180 87.7951 172.194 21.9318 -7.73429 1.50081 1.3402 -15.2966 -2.892 6.76869 -31.2653 -0.651131 1.50727e-007 48.8922 10.3976 -21.788 -4.09847 -0.789119 3.80822 -14.2487 -8.08465 
133.93 89.5246 112.6 5.78582 12.0307 -138.663 0 0 0 4.06333 8.4355 -6.15768 12.8976 -0.424301 -9.37811 -1.45561 -10.372 16.5505 -3.50715 6.35103 16.314 -29.6501 3.47388 -6.20287 -18.6381 3.3916 -3.17832 31.5918 -17.2366 -115.725 0.0446839 0.00108889 2.7919 24.1314 3.82858 9.05612 42.4396 -8.10752 -20.4373 -14.3813 7.40324 63.3193 -2.78556 -0.189582 7.78546 17.412 13.5162 18.6579 180 66.716 172.473 23.0361 -11.9699 2.44776 1.40345 -12.6188 -4.27081 13.849 -22.4706 -2.31605 -2.99696e-007 50.7756 13.0665 -30.5341 -10.6877 -2.92506 4.90191 -20.3669 -10.461 
126.009 90.3397 105.053 5.14064 11.3169 -138.932 0 0 0 2.99671 9.56278 -3.48459 11.5186 -0.845541 -6.82501 0.718271 -8.41 13.659 -4.48265 5.22992 14.3425 -28.8952 2.9331 -4.8699 -38.8258 7.61468 15.9522 47.0067 -19.8027 -107.528 3.67551 -0.107394 -3.34613 26.9783 5.0361 11.6292 40.8022 -10.1236 1.47567 -15.979 8.80789 61.8648 -2.8851 -0.176975 7.0189 17.0067 -6.21687 15.0417 180 56.1085 171.62 27.0362 -15.6635 3.78795 1.48805 -8.64998 -5.52635 11.9209 -13.3464 -2.96256 -4.83674e-007 49.6932 12.7294 -30.6539 -20.2151 -5.59418 4.32535 -16.7195 -7.28168 
118.083 91.1509 97.8333 4.25777 7.62608 -139.598 0 0 0 2.36922 9.40357 1.09303 7.63231 -3.00354 -0.9514 -1.31377 -6.61663 8.66151 -2.18787 5.25887 8.55193 -30.1131 2.6614 -3.8455 -46.0175 11.7432 30.9556 54.6366 -21.5396 -104.604 2.95112 -0.0638131 -2.47692 21.5277 4.10351 11.1268 47.0094 -13.4329 18.0431 -17.5934 8.2692 65.6023 -4.60154 -0.265579 6.60283 12.9981 -27.3797 12.5499 180 57.592 178.615 29.702 -16.5508 4.41727 1.03842 -14.4285 -0.610443 7.44872 -5.50739 -4.06333 5.66495e-007 45.0018 14.0819 -33.1652 -22.4499 -6.76417 4.96159 -19.9161 -7.95705 
108.53 93.4882 89.3503 2.51242 7.61171 -142.463 0 0 0 11.1305 10.5697 6.2229 -8.24018 -1.87924 7.79015 5.265 -7.15659 0.402652 -3.2683 5.22176 2.47824 -24.4013 2.3624 -4.19868 -49.0295 16.9346 43.53 58.9041 -24.9522 -104.276 1.24046 -0.0798749 -7.36823 17.0621 3.26515 10.1828 50.8824 -18.0224 24.5643 -13.8835 3.67037 75.4796 -7.19639 -0.433033 6.87808 10.959 -37.0012 10.8127 180 71.2464 -172.48 25.4778 -19.8244 4.52466 1.01461 -9.39608 -2.46152 3.84179 8.2336 -4.25858 -1.02718e-008 33.9937 18.8999 -25.7958 -13.8107 -3.17713 7.14358 -27.9287 -4.36202 
98.1342 96.0917 79.536 -0.332446 7.94959 -144.47 0 0 0 14.2861 13.213 11.4835 -17.4404 -1.81688 15.609 8.61525 -10.8632 -7.08172 -2.00365 8.72746 -4.34927 -18.2259 1.76688 -3.60514 -48.8266 22.8718 50.657 57.1259 -27.046 -106.377 2.9934 -0.136635 -5.22578 6.96403 2.13181 11.0132 51.1638 -23.2045 18.6053 -12.9347 0.344224 88.5016 -7.94981 -0.463017 6.65594 8.70644 -37.875 9.88994 4.59708e-006 88.1271 10.476 25.351 -18.5419 4.20517 1.08687 -9.80822 -2.80192 -1.68941 22.7247 -4.85688 -1.20171 20.7717 26.8298 -8.37064 -3.19205 -0.233648 5.10764 -18.3903 2.67214 
87.6345 96.5926 69.758 -3.60766 5.0203 -145.481 0 0 0 15.637 9.10483 16.2021 -25.8087 5.37052 22.6655 8.51097 -16.4466 -11.5992 1.02258 12.4073 -9.73415 -8.99183 1.27034 -4.22141 -46.906 22.5458 51.5705 56.4028 -28.2268 -107.443 2.25721 -0.137851 -6.98869 -5.50177 0.584709 12.505 47.299 -27.7347 11.9268 -13.3358 -1.68524 97.0721 -6.79457 -0.388236 6.53293 3.57323 -38.0575 8.47584 -1.25286e-006 65.3136 7.4556 21.035 -12.8394 2.39338 1.25048 -10.7645 -3.62708 -8.99274 32.2794 -10.4596 -1.46916 15.0492 28.4012 -28.2222 7.82849 1.97086 4.87557 -19.4785 -7.87801 
77.107 96.2028 60.2481 -1.64828 4.11541 -147.792 0 0 0 21.0536 4.36326 19.3191 -29.6448 9.21907 26.5452 7.32382 -15.4026 -12.7523 1.46096 10.2523 -11.103 -1.8633 0.678308 -3.21249 -48.3707 18.3814 56.273 56.076 -29.3918 -108.267 -5.03422 0.942118 -21.1869 -14.1529 -0.608446 11.907 37.8081 -25.4383 10.8842 -12.6885 -2.10651 99.2722 -4.73418 -0.247269 5.97638 6.12119 -36.2155 11.1965 -1.87751e-008 40.417 0.560288 16.3419 -7.09297 1.01972 0.844084 -9.63681 -1.30767 -11.5574 36.2583 -11.622 -2.5983 18.178 8.64906 -24.4185 -6.38951 -1.38391 4.31845 -16.9802 -9.40943 
66.0171 95.0262 50.5796 0.391918 6.83348 -149.93 0 0 0 27.0569 2.07537 20.5452 -30.6548 10.499 27.2962 9.16123 -10.3185 -12.3296 -0.138324 8.54924 -9.71786 3.63151 0.246647 -1.17931 -53.4563 14.4364 61.5295 58.9117 -30.5721 -107.05 0.0883844 -0.0109006 -14.0618 -15.2818 -0.678486 10.2447 31.0577 -19.9626 11.62 -11.4887 -2.52938 102.251 -3.23748 -0.160799 5.68535 9.99717 -29.1637 10.8446 -1.5881 17.7051 -3.99158 12.3455 -3.656 0.395541 0.729862 -7.03181 -1.48548 -13.2651 42.6405 -9.20082 -2.43022 21.4894 -10.2397 -24.7097 -11.3016 -2.48316 3.59885 -13.241 -6.66477 
55.6936 93.9057 41.7015 2.56563 10.5918 -150.145 0 0 0 29.7017 1.07865 19.3442 -27.6367 9.99566 24.748 11.2254 -6.52266 -10.8287 -0.285101 8.84119 -7.56701 3.12095 0.226512 -0.461125 -54.8326 9.3423 66.8669 75.8625 -36.5206 -98.525 -0.999479 0.668217 -67.5298 -15.0164 -0.633146 9.96481 33.0995 -12.1843 4.61289 -11.5504 -4.12878 109.407 -2.35414 -0.139052 6.75975 13.3725 -25.0719 9.54641 -1.11296 10.7324 -9.73836 12.1731 -0.505166 0.0538672 0.160615 -5.0248 0.852006 -13.2503 44.0107 -2.98569 -1.03615e-006 35.9121 -25.9929 -30.307 -13.9868 -3.80546 3.86112 -14.504 -7.74624 
46.2581 92.9121 33.7657 2.2766 13.5341 -147.674 0 0 0 26.6966 1.94555 15.2553 -22.2463 8.13065 19.5678 12.2253 -5.84713 -8.37207 -0.99605 9.57356 -4.70547 -0.711717 0.20667 1.22627 -56.1038 6.58995 66.3408 65.5316 -34.0838 -104.306 -1.30247 0.46209 -39.0658 -8.59039 0.134472 10.8517 33.3836 -3.86819 -5.67898 -11.1602 -5.72879 116.838 -1.13021 -0.0563414 5.70751 12.6841 -22.5796 8.82135 -0.404726 15.3004 -15.248 11.2276 3.29298 -0.32377 -0.0501706 -3.15516 1.19961 -13.4036 42.2332 -3.4241 8.28509e-007 55.9025 -21.4013 -33.8114 -14.5249 -4.43616 4.00147 -15.3241 -9.73023 
37.722 92.2587 26.1547 -1.25956 14.2204 -144.305 0 0 0 18.6828 3.92284 11.251 -16.4887 7.47015 15.0604 10.4841 -6.21566 -5.75619 -1.68861 7.36002 -2.49577 -10.8908 0.69373 -0.322133 -52.0711 5.68936 57.6845 53.4231 -28.9491 -109.757 1.60624 -0.119028 -8.4756 -1.74964 0.922033 9.77567 37.7884 3.00099 -16.6555 -14.9874 -7.74973 116.734 2.34349 0.127705 6.23746 9.39337 -22.8824 10.958 -0.0995196 29.771 -27.4069 -2.15624 15.3399 0.290417 0.997367 -22.6758 13.9887 -15.1575 37.209 -2.1833 5.09637e-007 76.7166 -9.26237 -32.3031 -16.9763 -4.94971 4.07029 -15.4925 -7.20353 
29.1714 89.8737 18.6168 -6.26455 12.0077 -139.84 0 0 0 8.45924 5.80599 6.98237 -10.9862 4.37272 10.0203 11.0395 -8.78656 -3.20964 -2.34379 6.06394 0.00757696 -27.3371 1.81153 -1.90772 -38.4661 10.7515 40.107 51.8342 -24.6464 -108.147 1.85243 -0.092973 -5.74602 10.0511 2.12229 8.66917 42.3108 5.21746 -25.4676 -18.8872 -5.96541 106.897 2.33052 0.104789 5.14828 2.87671 -23.6519 9.67728 -1.95095e-006 50.846 -29.7532 6.14767 -2.13764 0.114805 -0.236272 -17.8737 16.8376 -19.5725 29.4029 -2.47437 180 84.1279 178.936 -33.7108 -20.4199 -6.24682 4.54683 -17.8638 -7.78461 
22.4512 91.0482 11.9585 -11.8254 8.18703 -138.54 0 0 0 -0.67135 8.21528 4.33117 -10.8578 4.36933 6.9083 13.6184 -9.2423 -0.49846 -2.76408 5.92082 3.20885 -32.6518 2.90822 -4.00267 -23.9513 18.2828 10.4569 49.7408 -15.0656 -102.414 -0.192634 0.00461061 -2.74218 14.2634 2.1644 6.68782 53.1843 0.735672 -26.823 -19.2229 2.3793 83.2103 -1.65204 -0.0853177 5.91229 -4.79152 -14.9134 9.9255 -1.25821e-006 49.806 -26.9801 11.3574 -11.8481 1.18232 -1.0339 -7.43376 8.55773 -21.3821 13.5264 -0.76319 180 70.6973 175.778 -36.7798 -20.443 -6.86131 4.91274 -19.3949 -6.83176 
15.5415 92.2494 5.5572 -10.7108 9.01995 -141.411 0 0 0 1.13116 10.3451 1.50978 -12.978 0.52657 3.88835 14.5062 -3.36264 3.05306 -2.30624 5.50255 7.408 -31.3117 3.17757 -4.98868 -11.936 18.9912 -9.78331 48.2314 -11.5655 -100.152 1.66257 -0.0435552 -3.00111 16.3409 2.3982 6.85779 57.7944 -0.496483 -29.7945 -14.5007 7.06722 64.5591 -0.703754 -0.0451497 7.34152 -3.29165 -6.90403 13.8057 6.79851e-007 48.669 -24.6095 16.2078 -20.9295 3.01305 0.48421 0.259147 -2.07732 -13.4105 -5.88272 3.31762 180 68.5695 167.589 -37.7283 -18.6091 -6.40811 4.72954 -18.7274 -7.68386 
